<svg xmlns="http://www.w3.org/2000/svg" width='200px' height='60px' fill="none" viewBox="0 0 132 24" class="w-40"><g fill="#000"><path fill-rule="evenodd" d="m0 7.2c0-2.23652 0-3.35478.365378-4.23688.487171-1.17614 1.421602-2.110571 2.597742-2.597742.8821-.365378 2.00036-.365378 4.23688-.365378h9.6c2.2365 0 3.3548 0 4.2369.365378 1.1761.487171 2.1106 1.421602 2.5977 2.597742.3654.8821.3654 2.00036.3654 4.23688v9.6c0 2.2365 0 3.3548-.3654 4.2369-.4871 1.1761-1.4216 2.1106-2.5977 2.5977-.8821.3654-2.0004.3654-4.2369.3654h-9.6c-2.23652 0-3.35478 0-4.23688-.3654-1.17614-.4871-2.110571-1.4216-2.597742-2.5977-.365378-.8821-.365378-2.0004-.365378-4.2369zm7.032 1.21196c-.91458 0-1.656-.74141-1.656-1.65598s.74142-1.65598 1.656-1.65598h7.452c2.5913 0 4.692 2.10065 4.692 4.69194 0 2.59126-2.1007 4.69196-4.692 4.69196h-5.796v2.7599c0 .9146-.74141 1.656-1.656 1.656-.91458 0-1.656-.7414-1.656-1.656v-4.4159c0-.9146.74142-1.656 1.656-1.656h7.452c.7622 0 1.38-.6178 1.38-1.37996 0-.76215-.6178-1.37998-1.38-1.37998zm7.452 7.45194h-.6861l2.5511 2.5511c.2997.2996.7137.485 1.171.485.9146 0 1.656-.7414 1.656-1.656 0-.4573-.1854-.8713-.485-1.171l-1.077-1.0769c-.914.5509-1.985.8678-3.13.8678z" clip-rule="evenodd"/><path fill-rule="evenodd" d="m30.6 18.9972h3.0423v-4.462h2.8394c2.9408 0 4.969-2.0282 4.969-4.8676 0-2.83943-2.0282-4.8676-4.969-4.8676h-5.8817zm3.0423-7.2v-4.25917h2.5352c1.4197 0 2.2309.81126 2.2309 2.12957 0 1.3183-.8112 2.1296-2.2309 2.1296z" clip-rule="evenodd"/><path d="m45.5934 18.9972h-2.8395v-14.1972h2.8395v4.56338h.1014c.7099-.81127 1.5211-1.31831 2.738-1.31831 2.3324 0 3.9549 1.62253 3.9549 4.36053v6.5916h-2.8394v-6.1859c0-1.4198-.7098-2.231-1.9267-2.231s-2.0282.9127-2.0282 2.231z"/><path d="m70.0313 18.9972h2.0281v-2.6367h-1.5211c-.6084 0-1.0141-.4056-1.0141-1.014v-4.462h2.5352v-2.63663h-2.5352v-2.83943h-2.4338l-.4056 2.83943h-1.724v2.63663h1.724v4.969c0 2.0282 1.1155 3.1437 3.3465 3.1437z"/><g fill-rule="evenodd" clip-rule="evenodd"><path d="m73.0838 13.6225c0 3.5493 2.0282 5.5775 5.2733 5.5775 3.245 0 5.2732-2.0282 5.2732-5.5775s-2.0282-5.57742-5.2732-5.57742c-3.2451 0-5.2733 2.02812-5.2733 5.57742zm7.7071 0c0 2.1296-1.1155 3.0423-2.4338 3.0423-1.3184 0-2.4338-.9127-2.4338-3.0423 0-2.1295 1.1154-3.0422 2.4338-3.0422 1.3183 0 2.4338.9127 2.4338 3.0422z"/><path d="m97.7228 19.2c-3.245 0-5.2732-2.0282-5.2732-5.5775s2.0282-5.57742 5.2732-5.57742c3.2452 0 5.2732 2.02812 5.2732 5.57742s-2.028 5.5775-5.2732 5.5775zm0-2.5352c1.3184 0 2.4342-.9127 2.4342-3.0423 0-2.1295-1.1158-3.0422-2.4342-3.0422-1.3183 0-2.4337.9127-2.4337 3.0422 0 2.1296 1.1154 3.0423 2.4337 3.0423z"/><path d="m109.483 19.2c-3.245 0-5.273-2.0282-5.273-5.5775s2.028-5.57742 5.273-5.57742 5.273 2.02812 5.273 5.57742-2.028 5.5775-5.273 5.5775zm0-2.5352c1.318 0 2.434-.9127 2.434-3.0423 0-2.1295-1.116-3.0422-2.434-3.0422s-2.434.9127-2.434 3.0422c0 2.1296 1.116 3.0423 2.434 3.0423z"/></g><path d="m116.274 18.9972h2.84v-6.2873c0-1.4198.811-2.1296 1.724-2.1296 1.014 0 1.825.6084 1.825 2.1296v6.2873h2.839v-6.2873c0-1.4198.812-2.1296 1.724-2.1296 1.014 0 1.826.6084 1.826 2.1296v6.2873h2.839v-6.693c0-2.63659-1.622-4.25912-3.955-4.25912-1.379 0-2.738.73014-3.245 1.72394h-.101c-.528-1.05465-1.663-1.72394-2.941-1.72394-1.116 0-1.927.50704-2.535 1.41971h-.102l-.304-1.2169h-2.434z"/><path d="m87.9877 18.9972h-2.8394v-10.74929h2.4337l.3043 1.2169h.1014c.6084-.91268 1.5211-1.2169 2.5352-1.2169h1.3183v2.73799h-1.1155c-1.7239 0-2.738 1.0141-2.738 2.6367z"/><path fill-rule="evenodd" d="m59.0751 19.2c-3.245 0-5.2732-2.0282-5.2732-5.5775s2.0282-5.57742 5.2732-5.57742c3.2451 0 5.2733 2.02812 5.2733 5.57742s-2.0282 5.5775-5.2733 5.5775zm0-2.5352c1.3184 0 2.4338-.9127 2.4338-3.0423 0-2.1295-1.1154-3.0422-2.4338-3.0422-1.3183 0-2.4338.9127-2.4338 3.0422 0 2.1296 1.1155 3.0423 2.4338 3.0423z" clip-rule="evenodd"/></g></svg>